<?xml version="1.0" encoding="utf-8"?>
<!-- Generator: Adobe Illustrator 27.7.0, SVG Export Plug-In . SVG Version: 6.00 Build 0)  -->
<svg version="1.1" id="Layer_1" xmlns="http://www.w3.org/2000/svg" xmlns:xlink="http://www.w3.org/1999/xlink" x="0px" y="0px"
	 viewBox="0 0 1000 242.7" style="enable-background:new 0 0 1000 242.7;" xml:space="preserve">
<style type="text/css">
	.st0{fill:#FF4646;}
	.st1{fill:#071A52;}
</style>
<g>
	<g>
		<path class="st0" d="M184.7,173.2c-5.2,3.3-11.7,6.7-18.8,8.1c-2,0.4-4-0.8-4.6-2.7L127,70.1c-0.7-2.1,0.5-4.4,2.7-5
			c11.7-3.4,46.8-14.6,72.7-34C181,11.8,152.5,0,121.3,0C80.2,0,43.9,20.5,21.9,51.8c33.4,1.9,70.9-9.8,82.9-13.9
			c2.1-0.7,4.4,0.4,5.1,2.6l31.5,99.7c0.6,1.8-0.2,3.7-1.7,4.6c-18.1,10.9-25.4,21.3-28.2,28.9c-1.4,3.8,3.1,7.1,6.2,4.6
			c9.4-7.6,21.6-11.6,27.6-13.2c2.1-0.5,4.2,0.6,4.8,2.7l14.8,46.6c0.7,2.3-0.7,4.7-3,5.1C81,234.7,29.2,132.6,7.7,78.7
			C2.7,92,0,106.3,0,121.3c0,67,54.3,121.3,121.3,121.3c20.2,0,39.2-5,56-13.7l-7.7-24.2c-0.6-1.8,0.2-3.8,1.9-4.7
			c4.2-2.4,12.3-8.3,18.9-21.8C192.3,174.6,188.2,170.9,184.7,173.2z"/>
		<path class="st0" d="M200.6,95.7c-20.5-9.8-33.7-3.8-41.1,2.9c-3.1,2.8-0.6,8,3.6,7.3c12.2-2.1,25.5-2.4,35.6-2.2
			C203.3,103.9,204.8,97.7,200.6,95.7z"/>
		<path class="st0" d="M101.4,92.9c2.1-3.9-2.7-7.9-6.2-5.2c-9.3,7-22.5,16-35.8,22.1c-3.7,1.7-3,7.2,1.1,7.9
			C71.6,119.5,88.7,117.2,101.4,92.9z"/>
	</g>
	<path class="st1" d="M267.3,169c-5.2-4.5-7.8-12-7.8-22.3V96.8H246V77h13.5V53.3h26.6V77h17.7v19.9h-17.7v47c0,4.5,1,7.7,3,9.4
		c2,1.8,5,2.7,9,2.7c1.2,0,2.3,0,3.2-0.1c0.9-0.1,1.7-0.2,2.5-0.3v19.3c-1.4,0.2-3.2,0.5-5.4,0.7c-2.1,0.2-4.6,0.3-7.4,0.3
		C280.4,175.8,272.4,173.5,267.3,169z"/>
	<path class="st1" d="M318.8,77h26.5v96.8h-26.5V77z M322.7,62.3c-2.6-2.6-3.8-5.6-3.8-9.1c0-3.6,1.3-6.6,3.8-9.1
		c2.6-2.5,5.7-3.8,9.4-3.8c3.7,0,6.8,1.3,9.4,3.8c2.5,2.5,3.8,5.5,3.8,9.1c0,3.5-1.3,6.5-3.8,9.1c-2.5,2.6-5.7,3.8-9.4,3.8
		C328.4,66.2,325.2,64.9,322.7,62.3z"/>
	<path class="st1" d="M370.6,205.3c-2.4-0.2-4.4-0.5-6-0.8v-19.6c0.9,0.2,2.1,0.4,3.7,0.6c1.5,0.2,3.3,0.3,5.2,0.3
		c4,0,7.1-0.7,9.4-2c2.3-1.3,4-3.6,5.1-6.9l1.1-3.2L355,77h29l21.9,80.9l-3.5-5.2h5l-3.5,5.2L425.5,77h27.9l-33.2,98.5
		c-2.5,7.6-5.7,13.6-9.5,18c-3.8,4.4-8.4,7.6-13.8,9.4c-5.4,1.8-11.6,2.8-18.8,2.8C375.5,205.7,373,205.5,370.6,205.3z"/>
	<path class="st1" d="M472.1,171.6c-4.9-2.5-8.7-6-11.5-10.4c-2.7-4.4-4.1-9.5-4.1-15.1v-0.2c0-5.9,1.5-10.9,4.4-15.1
		c2.9-4.2,7.2-7.5,12.9-9.9c5.6-2.4,12.4-3.9,20.5-4.4l37.8-2.3v16.4l-33.8,2.3c-5.1,0.3-8.9,1.5-11.6,3.5c-2.6,2-4,4.8-4,8.2v0.2
		c0,3.6,1.4,6.3,4.1,8.4c2.7,2,6.4,3,10.9,3c3.9,0,7.4-0.8,10.5-2.3c3.1-1.5,5.5-3.6,7.3-6.3c1.8-2.7,2.7-5.7,2.7-9V109
		c0-4.3-1.4-7.6-4.1-10.1c-2.7-2.5-6.7-3.7-11.8-3.7c-4.9,0-8.9,1-11.7,3c-2.9,2-4.7,4.6-5.3,7.7l-0.2,0.8h-24.2l0.1-1.1
		c0.5-6,2.5-11.3,6-15.9c3.5-4.6,8.3-8.3,14.4-10.9c6.2-2.6,13.5-3.9,22-3.9c8.4,0,15.6,1.3,21.8,4c6.1,2.7,10.9,6.5,14.3,11.3
		c3.4,4.9,5.1,10.6,5.1,17.1v66.4h-26.4v-14.4h-0.5c-1.9,3.3-4.2,6.1-7,8.5c-2.8,2.4-6.1,4.2-9.7,5.5c-3.6,1.3-7.6,1.9-11.8,1.9
		C482.7,175.3,477.1,174.1,472.1,171.6z"/>
	<path class="st1" d="M576.2,169c-5.2-4.5-7.8-12-7.8-22.3V96.8H555V77h13.5V53.3h26.6V77h17.7v19.9h-17.7v47c0,4.5,1,7.7,3,9.4
		c2,1.8,5,2.7,9,2.7c1.2,0,2.3,0,3.2-0.1c0.9-0.1,1.7-0.2,2.5-0.3v19.3c-1.4,0.2-3.2,0.5-5.4,0.7c-2.1,0.2-4.6,0.3-7.4,0.3
		C589.4,175.8,581.4,173.5,576.2,169z"/>
	<path class="st1" d="M627.4,77h26.4v16.9h0.5c1.4-6,4.1-10.6,7.9-13.9c3.8-3.3,8.5-5,14.2-5c1.4,0,2.8,0.1,4.2,0.3
		c1.3,0.2,2.5,0.4,3.4,0.7v23.3c-1.1-0.5-2.5-0.9-4.2-1.1c-1.7-0.3-3.5-0.4-5.4-0.4c-4.3,0-8,0.8-11.1,2.5c-3.1,1.7-5.4,4.2-7,7.4
		c-1.6,3.3-2.4,7.2-2.4,11.9v54.2h-26.4V77z"/>
	<path class="st1" d="M710.4,169.8c-7.2-4-12.7-9.8-16.7-17.3c-3.9-7.6-5.9-16.6-5.9-27.1v-0.2c0-10.4,2-19.4,6-26.9
		c4-7.5,9.6-13.3,16.8-17.3c7.2-4,15.6-6.1,25.2-6.1c9.7,0,18.1,2,25.3,6c7.2,4,12.8,9.8,16.8,17.3c4,7.5,6,16.5,6,27v0.2
		c0,10.5-2,19.6-5.9,27.1c-3.9,7.5-9.5,13.3-16.7,17.3c-7.2,4-15.6,6-25.4,6C726.1,175.8,717.6,173.8,710.4,169.8z M747.1,151.6
		c3.1-2.3,5.6-5.7,7.3-10.1c1.7-4.4,2.6-9.8,2.6-16.1v-0.2c0-6.2-0.9-11.5-2.6-15.9c-1.7-4.4-4.2-7.8-7.4-10.1s-6.9-3.5-11.2-3.5
		c-4.2,0-7.9,1.2-11.1,3.5s-5.6,5.7-7.4,10.1c-1.7,4.4-2.6,9.7-2.6,15.9v0.2c0,6.3,0.9,11.7,2.6,16.1c1.7,4.4,4.2,7.8,7.4,10.1
		c3.2,2.3,7,3.5,11.3,3.5C740.3,155.1,744,153.9,747.1,151.6z"/>
	<path class="st1" d="M798.1,43.4h26.4v130.3h-26.4V43.4z"/>
	<path class="st1" d="M854,171.6c-4.9-2.5-8.7-6-11.5-10.4c-2.7-4.4-4.1-9.5-4.1-15.1v-0.2c0-5.9,1.5-10.9,4.4-15.1
		c2.9-4.2,7.2-7.5,12.9-9.9c5.6-2.4,12.4-3.9,20.5-4.4l37.8-2.3v16.4l-33.8,2.3c-5.1,0.3-8.9,1.5-11.6,3.5c-2.6,2-4,4.8-4,8.2v0.2
		c0,3.6,1.4,6.3,4.1,8.4c2.7,2,6.4,3,10.9,3c3.9,0,7.4-0.8,10.5-2.3c3.1-1.5,5.5-3.6,7.3-6.3c1.8-2.7,2.7-5.7,2.7-9V109
		c0-4.3-1.4-7.6-4.1-10.1c-2.7-2.5-6.7-3.7-11.8-3.7c-4.9,0-8.9,1-11.7,3s-4.7,4.6-5.3,7.7l-0.2,0.8h-24.2l0.1-1.1
		c0.5-6,2.5-11.3,6-15.9c3.5-4.6,8.3-8.3,14.4-10.9s13.5-3.9,22-3.9c8.4,0,15.6,1.3,21.8,4c6.1,2.7,10.9,6.5,14.3,11.3
		c3.4,4.9,5.1,10.6,5.1,17.1v66.4h-26.4v-14.4h-0.5c-1.9,3.3-4.2,6.1-7,8.5c-2.8,2.4-6.1,4.2-9.7,5.5c-3.6,1.3-7.6,1.9-11.8,1.9
		C864.6,175.3,858.9,174.1,854,171.6z"/>
	<path class="st1" d="M943.5,77h26.4v16.9h0.5c1.4-6,4.1-10.6,7.9-13.9c3.8-3.3,8.5-5,14.2-5c1.4,0,2.8,0.1,4.2,0.3
		c1.3,0.2,2.5,0.4,3.4,0.7v23.3c-1.1-0.5-2.5-0.9-4.2-1.1c-1.7-0.3-3.5-0.4-5.4-0.4c-4.3,0-8,0.8-11.1,2.5c-3.1,1.7-5.4,4.2-7,7.4
		c-1.6,3.3-2.4,7.2-2.4,11.9v54.2h-26.4V77z"/>
	<g>
		<path class="st1" d="M456.6,203.8h4.6v29.5h-4.6V203.8z M458.9,219.3h7.6c2,0,3.5-0.5,4.6-1.5c1.1-1,1.6-2.5,1.6-4.3v0
			c0-1.9-0.5-3.3-1.6-4.3c-1.1-1-2.6-1.5-4.6-1.5h-7.6v-3.9h8.7c1.9,0,3.6,0.4,5.1,1.2c1.5,0.8,2.6,1.9,3.4,3.4
			c0.8,1.4,1.2,3.1,1.2,5.1v0c0,1.9-0.4,3.6-1.2,5.1c-0.8,1.5-2,2.6-3.4,3.4c-1.5,0.8-3.2,1.2-5.1,1.2h-8.7V219.3z"/>
		<path class="st1" d="M481.7,232.8c-1.1-0.5-1.9-1.3-2.5-2.3c-0.6-1-0.9-2.1-0.9-3.4v0c0-1.3,0.3-2.3,0.9-3.2
			c0.6-0.9,1.5-1.6,2.7-2.2c1.2-0.5,2.6-0.8,4.3-0.9l8.1-0.5v3.1l-7.5,0.5c-1.3,0.1-2.3,0.4-3.1,0.9c-0.7,0.6-1.1,1.3-1.1,2.2v0
			c0,0.9,0.4,1.7,1.1,2.2s1.7,0.8,2.8,0.8c1,0,2-0.2,2.8-0.6c0.8-0.4,1.5-1,1.9-1.7c0.5-0.7,0.7-1.6,0.7-2.5v-6.4
			c0-1.2-0.4-2.1-1.1-2.8s-1.8-1-3.2-1c-1.3,0-2.3,0.3-3.1,0.8c-0.8,0.5-1.2,1.2-1.4,2.1l0,0.2h-4.2l0-0.2c0.1-1.2,0.5-2.4,1.2-3.3
			c0.7-1,1.7-1.8,3-2.3c1.3-0.6,2.8-0.9,4.6-0.9c1.8,0,3.3,0.3,4.6,0.9c1.3,0.6,2.3,1.4,3,2.5c0.7,1.1,1.1,2.3,1.1,3.7v14.8h-4.5
			v-3.4H492c-0.4,0.8-1,1.4-1.6,2c-0.7,0.6-1.4,1-2.3,1.3s-1.7,0.5-2.7,0.5C484,233.6,482.7,233.3,481.7,232.8z"/>
		<path class="st1" d="M502,240.3c-0.4,0-0.8-0.1-1-0.1v-3.5c0.2,0,0.4,0.1,0.6,0.1c0.3,0,0.5,0.1,0.8,0.1c1,0,1.9-0.2,2.5-0.5
			c0.6-0.4,1.1-1,1.5-2.1l0.4-1l-7.8-21.5h4.8l5.7,18.4l-0.8-1h1.1l-0.8,1l5.7-18.4h4.7l-8,22.5c-0.5,1.5-1.2,2.7-1.9,3.6
			c-0.7,0.9-1.6,1.6-2.6,2c-1,0.4-2.2,0.6-3.6,0.6C502.9,240.4,502.4,240.4,502,240.3z"/>
		<path class="st1" d="M522,203.8h4.4v29.5H522V203.8z"/>
		<path class="st1" d="M533.6,232.8c-1.1-0.5-1.9-1.3-2.5-2.3c-0.6-1-0.9-2.1-0.9-3.4v0c0-1.3,0.3-2.3,0.9-3.2
			c0.6-0.9,1.5-1.6,2.7-2.2c1.2-0.5,2.6-0.8,4.3-0.9l8.1-0.5v3.1l-7.5,0.5c-1.3,0.1-2.3,0.4-3.1,0.9c-0.7,0.6-1.1,1.3-1.1,2.2v0
			c0,0.9,0.4,1.7,1.1,2.2s1.7,0.8,2.8,0.8c1,0,2-0.2,2.8-0.6c0.8-0.4,1.5-1,1.9-1.7c0.5-0.7,0.7-1.6,0.7-2.5v-6.4
			c0-1.2-0.4-2.1-1.1-2.8s-1.8-1-3.2-1c-1.3,0-2.3,0.3-3.1,0.8c-0.8,0.5-1.2,1.2-1.4,2.1l0,0.2H531l0-0.2c0.1-1.2,0.5-2.4,1.2-3.3
			c0.7-1,1.7-1.8,3-2.3c1.3-0.6,2.8-0.9,4.6-0.9c1.8,0,3.3,0.3,4.6,0.9c1.3,0.6,2.3,1.4,3,2.5c0.7,1.1,1.1,2.3,1.1,3.7v14.8H544
			v-3.4h-0.1c-0.4,0.8-1,1.4-1.6,2c-0.7,0.6-1.4,1-2.3,1.3s-1.7,0.5-2.7,0.5C535.9,233.6,534.6,233.3,533.6,232.8z"/>
		<path class="st1" d="M556.1,232.8c-1.3-0.6-2.3-1.3-3-2.3c-0.7-1-1.2-2.1-1.3-3.4l0-0.2h4.4l0,0.2c0.2,1,0.7,1.7,1.4,2.3
			s1.8,0.8,3.1,0.8c0.9,0,1.7-0.1,2.3-0.3s1.1-0.5,1.4-1c0.3-0.4,0.5-0.9,0.5-1.5v0c0-0.7-0.2-1.3-0.7-1.7c-0.4-0.4-1.3-0.8-2.4-1.1
			l-3.5-0.8c-1.4-0.3-2.5-0.7-3.4-1.3c-0.9-0.5-1.6-1.2-2-2c-0.4-0.8-0.7-1.7-0.7-2.7v0c0-1.3,0.3-2.4,1-3.4c0.7-1,1.7-1.7,2.9-2.3
			c1.3-0.5,2.7-0.8,4.3-0.8c1.7,0,3.1,0.3,4.4,0.9c1.2,0.6,2.2,1.4,2.9,2.3c0.7,1,1.1,2.1,1.1,3.3v0.2h-4.1l0-0.1
			c-0.1-0.9-0.5-1.7-1.3-2.3c-0.7-0.6-1.7-0.9-2.9-0.9c-0.8,0-1.5,0.1-2.1,0.3c-0.6,0.2-1,0.6-1.3,1c-0.3,0.4-0.5,0.9-0.5,1.5v0
			c0,0.4,0.1,0.8,0.3,1.2c0.2,0.4,0.6,0.7,1,0.9c0.5,0.3,1.1,0.5,1.8,0.7l3.5,0.8c2.2,0.5,3.7,1.2,4.7,2.1c0.9,0.9,1.4,2.2,1.4,3.7
			v0c0,1.3-0.4,2.5-1.1,3.5c-0.7,1-1.8,1.8-3.1,2.3c-1.3,0.6-2.8,0.8-4.5,0.8C559,233.7,557.4,233.4,556.1,232.8z M558.4,242.5
			c-0.6-0.1-1-0.2-1.3-0.4v-2.5c0.2,0.1,0.6,0.2,0.9,0.2c0.4,0.1,0.8,0.1,1.2,0.1c0.5,0,1-0.1,1.4-0.3c0.4-0.2,0.6-0.5,0.6-0.9v0
			c0-0.5-0.2-0.8-0.6-1.1c-0.4-0.2-1-0.3-1.8-0.3H558v-1.8l1.8-2.8h2.6v0.4l-1.2,1.8c1.1,0.1,2,0.4,2.7,1.1c0.7,0.6,1,1.5,1,2.7v0
			c0,0.8-0.2,1.5-0.6,2.1c-0.4,0.6-1,1-1.7,1.3c-0.7,0.3-1.5,0.5-2.3,0.5C559.6,242.7,559,242.6,558.4,242.5z"/>
		<path class="st1" d="M573.1,211.7h4.5v21.5h-4.5V211.7z"/>
		<path class="st1" d="M582.2,203.8h4.4v29.5h-4.4V203.8z"/>
		<path class="st1" d="M593.7,232.8c-1.1-0.5-1.9-1.3-2.5-2.3c-0.6-1-0.9-2.1-0.9-3.4v0c0-1.3,0.3-2.3,0.9-3.2
			c0.6-0.9,1.5-1.6,2.7-2.2c1.2-0.5,2.6-0.8,4.3-0.9l8.1-0.5v3.1l-7.5,0.5c-1.3,0.1-2.3,0.4-3.1,0.9c-0.7,0.6-1.1,1.3-1.1,2.2v0
			c0,0.9,0.4,1.7,1.1,2.2c0.7,0.5,1.7,0.8,2.8,0.8c1,0,2-0.2,2.8-0.6c0.8-0.4,1.5-1,1.9-1.7c0.5-0.7,0.7-1.6,0.7-2.5v-6.4
			c0-1.2-0.4-2.1-1.1-2.8c-0.7-0.7-1.8-1-3.2-1c-1.3,0-2.3,0.3-3.1,0.8c-0.8,0.5-1.2,1.2-1.4,2.1l0,0.2h-4.2l0-0.2
			c0.1-1.2,0.5-2.4,1.2-3.3c0.7-1,1.7-1.8,3-2.3c1.3-0.6,2.8-0.9,4.6-0.9c1.8,0,3.3,0.3,4.6,0.9c1.3,0.6,2.3,1.4,3,2.5
			c0.7,1.1,1.1,2.3,1.1,3.7v14.8h-4.5v-3.4h-0.1c-0.4,0.8-1,1.4-1.6,2c-0.7,0.6-1.4,1-2.3,1.3s-1.7,0.5-2.7,0.5
			C596,233.6,594.8,233.3,593.7,232.8z"/>
		<path class="st1" d="M621.5,233.2c-0.9-0.3-1.6-0.8-2.3-1.4c-0.7-0.6-1.2-1.3-1.6-2.2h-0.1v3.6H613v-29.5h4.4v11.6h0.1
			c0.4-0.8,1-1.6,1.6-2.2c0.7-0.6,1.4-1.1,2.3-1.4c0.9-0.3,1.8-0.5,2.8-0.5c1.8,0,3.4,0.5,4.7,1.4c1.3,0.9,2.4,2.2,3.1,3.8
			c0.7,1.7,1.1,3.6,1.1,5.9v0c0,2.3-0.4,4.3-1.1,5.9s-1.8,3-3.1,3.9c-1.3,0.9-2.9,1.4-4.7,1.4C623.3,233.7,622.3,233.5,621.5,233.2z
			 M626.1,229c0.8-0.6,1.5-1.4,1.9-2.5s0.7-2.4,0.7-3.9v0c0-1.5-0.2-2.8-0.7-3.9c-0.5-1.1-1.1-1.9-1.9-2.5c-0.8-0.6-1.8-0.9-3-0.9
			c-1.1,0-2.1,0.3-2.9,0.9c-0.9,0.6-1.5,1.5-2,2.6c-0.5,1.1-0.7,2.4-0.7,3.9v0c0,1.5,0.2,2.8,0.7,3.9s1.2,2,2,2.6
			c0.9,0.6,1.8,0.9,2.9,0.9C624.3,229.8,625.3,229.5,626.1,229z"/>
		<path class="st1" d="M637.2,207.7c-0.5-0.5-0.8-1.1-0.8-1.8c0-0.7,0.3-1.3,0.8-1.8c0.5-0.5,1.1-0.7,1.8-0.7c0.7,0,1.3,0.2,1.8,0.7
			c0.5,0.5,0.7,1.1,0.7,1.8c0,0.7-0.2,1.3-0.7,1.8c-0.5,0.5-1.1,0.7-1.8,0.7C638.3,208.4,637.7,208.2,637.2,207.7z M636.8,211.7h4.5
			v21.5h-4.5V211.7z"/>
		<path class="st1" d="M646,203.8h4.4v29.5H646V203.8z"/>
		<path class="st1" d="M655.5,207.7c-0.5-0.5-0.8-1.1-0.8-1.8c0-0.7,0.3-1.3,0.8-1.8c0.5-0.5,1.1-0.7,1.8-0.7c0.7,0,1.3,0.2,1.8,0.7
			c0.5,0.5,0.7,1.1,0.7,1.8c0,0.7-0.2,1.3-0.7,1.8c-0.5,0.5-1.1,0.7-1.8,0.7C656.6,208.4,656,208.2,655.5,207.7z M655.1,211.7h4.5
			v21.5h-4.5V211.7z"/>
		<path class="st1" d="M664.1,211.7h4.5v3.7h0.1c0.3-1.3,0.9-2.3,1.8-3c0.9-0.7,1.9-1.1,3.1-1.1c0.3,0,0.6,0,0.9,0.1
			c0.3,0,0.5,0.1,0.6,0.1v4.1c-0.2-0.1-0.4-0.1-0.8-0.2c-0.4,0-0.7-0.1-1.2-0.1c-0.9,0-1.8,0.2-2.5,0.6c-0.7,0.4-1.2,1-1.6,1.7
			c-0.4,0.8-0.6,1.7-0.6,2.7v12.8h-4.5V211.7z"/>
		<path class="st1" d="M691.1,232.7c-1.7-0.7-3-1.6-3.9-2.9c-1-1.2-1.5-2.7-1.6-4.5l0-0.3h4.5l0,0.3c0.1,0.9,0.5,1.7,1.1,2.3
			c0.6,0.7,1.4,1.2,2.4,1.5c1,0.4,2.2,0.5,3.5,0.5c1.3,0,2.5-0.2,3.4-0.6c1-0.4,1.7-0.9,2.2-1.6c0.5-0.7,0.8-1.5,0.8-2.4v0
			c0-1.2-0.4-2.1-1.3-2.8c-0.9-0.7-2.3-1.3-4.2-1.7l-3.2-0.7c-2.9-0.6-5-1.6-6.5-3c-1.4-1.4-2.1-3.1-2.1-5.3v0
			c0-1.7,0.5-3.1,1.4-4.4c0.9-1.3,2.2-2.3,3.8-3c1.6-0.7,3.5-1.1,5.5-1.1c2,0,3.8,0.3,5.4,1c1.6,0.7,2.8,1.7,3.7,2.9
			c0.9,1.2,1.4,2.7,1.5,4.4l0,0.3h-4.5l0-0.3c-0.1-0.9-0.5-1.7-1-2.4c-0.6-0.7-1.3-1.2-2.2-1.5c-0.9-0.3-1.9-0.5-3.1-0.5
			c-1.2,0-2.3,0.2-3.2,0.5c-0.9,0.4-1.6,0.9-2.1,1.5c-0.5,0.6-0.7,1.4-0.7,2.3v0c0,1.1,0.4,2,1.3,2.7c0.9,0.7,2.2,1.2,4.1,1.6
			l3.2,0.7c2,0.4,3.7,1,5,1.7c1.3,0.7,2.2,1.6,2.8,2.7c0.6,1.1,0.9,2.4,0.9,3.9v0c0,1.8-0.5,3.4-1.4,4.7s-2.2,2.3-3.9,3
			c-1.7,0.7-3.7,1.1-6,1.1C694.6,233.7,692.7,233.4,691.1,232.7z"/>
		<path class="st1" d="M714.2,232.8c-1.1-0.5-1.9-1.3-2.5-2.3c-0.6-1-0.9-2.1-0.9-3.4v0c0-1.3,0.3-2.3,0.9-3.2
			c0.6-0.9,1.5-1.6,2.7-2.2c1.2-0.5,2.6-0.8,4.3-0.9l8.1-0.5v3.1l-7.5,0.5c-1.3,0.1-2.3,0.4-3.1,0.9c-0.7,0.6-1.1,1.3-1.1,2.2v0
			c0,0.9,0.4,1.7,1.1,2.2c0.7,0.5,1.7,0.8,2.8,0.8c1,0,2-0.2,2.8-0.6c0.8-0.4,1.5-1,1.9-1.7c0.5-0.7,0.7-1.6,0.7-2.5v-6.4
			c0-1.2-0.4-2.1-1.1-2.8s-1.8-1-3.2-1c-1.3,0-2.3,0.3-3.1,0.8c-0.8,0.5-1.2,1.2-1.4,2.1l0,0.2h-4.2l0-0.2c0.1-1.2,0.5-2.4,1.2-3.3
			c0.7-1,1.7-1.8,3-2.3c1.3-0.6,2.8-0.9,4.6-0.9c1.8,0,3.3,0.3,4.6,0.9c1.3,0.6,2.3,1.4,3,2.5c0.7,1.1,1.1,2.3,1.1,3.7v14.8h-4.5
			v-3.4h-0.1c-0.4,0.8-1,1.4-1.6,2c-0.7,0.6-1.4,1-2.3,1.3s-1.7,0.5-2.7,0.5C716.5,233.6,715.3,233.3,714.2,232.8z"/>
		<path class="st1" d="M733.3,211.7h4.5v3.2h0.1c0.6-1.1,1.4-2,2.5-2.6c1.1-0.7,2.5-1,4.1-1c2.4,0,4.2,0.7,5.5,2.1
			c1.3,1.4,1.9,3.4,1.9,5.8v13.9h-4.4v-13c0-1.6-0.4-2.9-1.1-3.7c-0.8-0.9-1.9-1.3-3.4-1.3c-1,0-1.9,0.2-2.7,0.7
			c-0.8,0.5-1.4,1.1-1.8,1.9c-0.4,0.8-0.6,1.8-0.6,2.9v12.5h-4.5V211.7z"/>
		<path class="st1" d="M758.7,232.8c-1.1-0.5-1.9-1.3-2.5-2.3c-0.6-1-0.9-2.1-0.9-3.4v0c0-1.3,0.3-2.3,0.9-3.2
			c0.6-0.9,1.5-1.6,2.7-2.2c1.2-0.5,2.6-0.8,4.3-0.9l8.1-0.5v3.1l-7.5,0.5c-1.3,0.1-2.3,0.4-3.1,0.9c-0.7,0.6-1.1,1.3-1.1,2.2v0
			c0,0.9,0.4,1.7,1.1,2.2c0.7,0.5,1.7,0.8,2.8,0.8c1,0,2-0.2,2.8-0.6c0.8-0.4,1.5-1,1.9-1.7c0.5-0.7,0.7-1.6,0.7-2.5v-6.4
			c0-1.2-0.4-2.1-1.1-2.8c-0.7-0.7-1.8-1-3.2-1c-1.3,0-2.3,0.3-3.1,0.8c-0.8,0.5-1.2,1.2-1.4,2.1l0,0.2h-4.2l0-0.2
			c0.1-1.2,0.5-2.4,1.2-3.3c0.7-1,1.7-1.8,3-2.3c1.3-0.6,2.8-0.9,4.6-0.9c1.8,0,3.3,0.3,4.6,0.9c1.3,0.6,2.3,1.4,3,2.5
			c0.7,1.1,1.1,2.3,1.1,3.7v14.8h-4.5v-3.4H769c-0.4,0.8-1,1.4-1.6,2c-0.7,0.6-1.4,1-2.3,1.3s-1.7,0.5-2.7,0.5
			C761,233.6,759.7,233.3,758.7,232.8z"/>
		<path class="st1" d="M780.6,232.2c-1-1-1.6-2.5-1.6-4.7v-12.3H776v-3.5h3.1v-5.6h4.5v5.6h4v3.5h-4v12c0,1.1,0.2,1.8,0.7,2.2
			c0.5,0.4,1.2,0.6,2.1,0.6c0.2,0,0.4,0,0.6,0c0.2,0,0.4,0,0.5-0.1v3.4c-0.3,0-0.6,0.1-1,0.1c-0.4,0-0.8,0.1-1.3,0.1
			C783.2,233.7,781.6,233.2,780.6,232.2z"/>
		<path class="st1" d="M800.2,203.8h4.6v29.5h-4.6V203.8z M802.5,219.3h7.6c2,0,3.5-0.5,4.6-1.5c1.1-1,1.6-2.5,1.6-4.3v0
			c0-1.9-0.5-3.3-1.6-4.3c-1.1-1-2.6-1.5-4.6-1.5h-7.6v-3.9h8.7c1.9,0,3.6,0.4,5.1,1.2c1.5,0.8,2.6,1.9,3.4,3.4
			c0.8,1.4,1.2,3.1,1.2,5.1v0c0,1.9-0.4,3.6-1.2,5.1c-0.8,1.5-2,2.6-3.4,3.4c-1.5,0.8-3.2,1.2-5.1,1.2h-8.7V219.3z"/>
		<path class="st1" d="M824.6,203.8h4.4v29.5h-4.4V203.8z"/>
		<path class="st1" d="M836.1,232.8c-1.1-0.5-1.9-1.3-2.5-2.3c-0.6-1-0.9-2.1-0.9-3.4v0c0-1.3,0.3-2.3,0.9-3.2
			c0.6-0.9,1.5-1.6,2.7-2.2c1.2-0.5,2.6-0.8,4.3-0.9l8.1-0.5v3.1l-7.5,0.5c-1.3,0.1-2.3,0.4-3.1,0.9c-0.7,0.6-1.1,1.3-1.1,2.2v0
			c0,0.9,0.4,1.7,1.1,2.2c0.7,0.5,1.7,0.8,2.8,0.8c1,0,2-0.2,2.8-0.6c0.8-0.4,1.5-1,1.9-1.7c0.5-0.7,0.7-1.6,0.7-2.5v-6.4
			c0-1.2-0.4-2.1-1.1-2.8c-0.7-0.7-1.8-1-3.2-1c-1.3,0-2.3,0.3-3.1,0.8c-0.8,0.5-1.2,1.2-1.4,2.1l0,0.2h-4.2l0-0.2
			c0.1-1.2,0.5-2.4,1.2-3.3c0.7-1,1.7-1.8,3-2.3c1.3-0.6,2.8-0.9,4.6-0.9c1.8,0,3.3,0.3,4.6,0.9c1.3,0.6,2.3,1.4,3,2.5
			c0.7,1.1,1.1,2.3,1.1,3.7v14.8h-4.5v-3.4h-0.1c-0.4,0.8-1,1.4-1.6,2c-0.7,0.6-1.4,1-2.3,1.3c-0.8,0.3-1.7,0.5-2.7,0.5
			C838.5,233.6,837.2,233.3,836.1,232.8z"/>
		<path class="st1" d="M858.1,232.2c-1-1-1.6-2.5-1.6-4.7v-12.3h-3.1v-3.5h3.1v-5.6h4.5v5.6h4v3.5h-4v12c0,1.1,0.2,1.8,0.7,2.2
			c0.5,0.4,1.2,0.6,2.1,0.6c0.2,0,0.4,0,0.6,0c0.2,0,0.4,0,0.5-0.1v3.4c-0.3,0-0.6,0.1-1,0.1c-0.4,0-0.8,0.1-1.3,0.1
			C860.7,233.7,859.1,233.2,858.1,232.2z"/>
		<path class="st1" d="M870,215.3h-3v-3.5h3v-2.3c0-1.4,0.2-2.5,0.7-3.4c0.4-0.9,1.1-1.6,2.1-2c0.9-0.4,2.1-0.7,3.6-0.7
			c0.4,0,0.9,0,1.4,0.1c0.5,0,0.8,0.1,1.1,0.1v3.3c-0.2,0-0.4,0-0.7-0.1c-0.3,0-0.5,0-0.8,0c-1,0-1.7,0.2-2.2,0.7s-0.7,1.2-0.7,2.1
			v2.2h4.3v3.5h-4.3v18H870V215.3z"/>
		<path class="st1" d="M884.2,232.3c-1.5-0.9-2.7-2.2-3.6-3.9c-0.8-1.7-1.3-3.7-1.3-6v0c0-2.3,0.4-4.3,1.3-5.9
			c0.9-1.7,2-2.9,3.6-3.8c1.5-0.9,3.3-1.3,5.3-1.3c2,0,3.8,0.4,5.4,1.3c1.5,0.9,2.7,2.2,3.6,3.8c0.9,1.7,1.3,3.6,1.3,5.9v0
			c0,2.3-0.4,4.3-1.3,6c-0.9,1.7-2,2.9-3.6,3.8c-1.5,0.9-3.3,1.4-5.3,1.4C887.5,233.7,885.7,233.2,884.2,232.3z M892.6,229.1
			c0.8-0.6,1.5-1.4,2-2.5c0.5-1.1,0.7-2.5,0.7-4v0c0-1.6-0.2-2.9-0.7-4c-0.5-1.1-1.1-2-2-2.5c-0.9-0.6-1.9-0.9-3-0.9
			c-1.1,0-2.1,0.3-3,0.9c-0.9,0.6-1.5,1.4-2,2.5c-0.5,1.1-0.7,2.4-0.7,4v0c0,1.6,0.2,2.9,0.7,4c0.5,1.1,1.1,2,2,2.5
			c0.9,0.6,1.9,0.9,3,0.9C890.7,229.9,891.7,229.6,892.6,229.1z"/>
		<path class="st1" d="M903.1,211.7h4.5v3.7h0.1c0.3-1.3,0.9-2.3,1.8-3c0.9-0.7,1.9-1.1,3.1-1.1c0.3,0,0.6,0,0.9,0.1
			c0.3,0,0.5,0.1,0.6,0.1v4.1c-0.2-0.1-0.4-0.1-0.8-0.2c-0.4,0-0.7-0.1-1.2-0.1c-0.9,0-1.8,0.2-2.5,0.6c-0.7,0.4-1.2,1-1.6,1.7
			c-0.4,0.8-0.6,1.7-0.6,2.7v12.8h-4.5V211.7z"/>
		<path class="st1" d="M916.9,211.7h4.5v3.3h0.1c0.5-1.1,1.2-2,2.3-2.7c1-0.7,2.3-1,3.7-1c1,0,1.9,0.2,2.7,0.5
			c0.8,0.3,1.5,0.8,2.1,1.4c0.6,0.6,1,1.4,1.3,2.3h0.1c0.4-0.9,0.9-1.6,1.5-2.3c0.7-0.6,1.4-1.1,2.3-1.5c0.9-0.3,1.8-0.5,2.8-0.5
			c1.4,0,2.6,0.3,3.7,0.9c1,0.6,1.9,1.4,2.5,2.5c0.6,1.1,0.9,2.3,0.9,3.7v14.8h-4.5v-13.7c0-0.9-0.2-1.7-0.5-2.4
			c-0.3-0.7-0.8-1.1-1.4-1.5c-0.6-0.3-1.4-0.5-2.2-0.5c-0.9,0-1.6,0.2-2.3,0.6c-0.7,0.4-1.2,0.9-1.6,1.7s-0.6,1.5-0.6,2.4v13.4h-4.3
			v-14c0-0.8-0.2-1.5-0.5-2.2c-0.3-0.6-0.8-1.1-1.4-1.4c-0.6-0.3-1.3-0.5-2.2-0.5c-0.9,0-1.6,0.2-2.3,0.6c-0.7,0.4-1.2,1-1.6,1.7
			c-0.4,0.7-0.6,1.6-0.6,2.5v13.3h-4.5V211.7z"/>
		<path class="st1" d="M954.7,232.7c-1.1-0.6-2-1.6-2.5-2.8c-0.6-1.2-0.9-2.6-0.9-4.3v-13.9h4.5v13.1c0,1.6,0.4,2.9,1.1,3.7
			c0.8,0.9,1.9,1.3,3.4,1.3c0.8,0,1.5-0.1,2.1-0.4c0.6-0.3,1.2-0.6,1.6-1.1c0.4-0.5,0.8-1.1,1-1.8c0.2-0.7,0.4-1.4,0.4-2.3v-12.5
			h4.4v21.5h-4.4V230h-0.1c-0.4,0.7-0.9,1.3-1.5,1.9c-0.6,0.6-1.3,1-2.2,1.3c-0.9,0.3-1.8,0.5-2.9,0.5
			C957.2,233.7,955.8,233.3,954.7,232.7z"/>
	</g>
</g>
</svg>
